<?xml version="1.0" encoding="UTF-8"?>
<svg id="Layer_2" data-name="Layer 2" xmlns="http://www.w3.org/2000/svg" viewBox="0 0 285.08 362.38">
  <defs>
    <style>
      .cls-1 {
        fill: #000;
        stroke-width: 0px;
      }
    </style>
  </defs>
  <g id="Layer_1-2" data-name="Layer 1">
    <path class="cls-1" d="M138.56.64c2.55,0,5.11,0,7.66,0,3.17,2.89,6.49,5.63,9.47,8.71,5.07,5.24,9.87,10.73,14.86,16.04,4.67,4.98,9.54,9.78,14.13,14.84,9.07,9.99,18.13,19.99,26.96,30.2,7.42,8.57,14.75,17.24,21.64,26.23,6.03,7.87,11.51,16.17,17,24.43,9.21,13.88,16.98,28.6,23.45,43.92,5.49,13,10.01,26.57,10.73,40.69.66,12.84,1.32,25.84-1,38.7-2.94,16.36-8.31,31.73-16.5,46.32-7.74,13.79-17.8,25.35-29.32,35.97-8.62,7.94-18.68,13.56-28.65,19.32-10.75,6.21-22.4,10.39-34.57,12.78-7.79,1.53-15.72,3.02-23.61,3.15-10.27.17-20.65,1.48-30.87-1.55-5.32-1.58-11.05-1.75-16.45-3.09-5.07-1.26-10.12-2.87-14.91-4.94-11.79-5.08-23.02-11.42-33.15-19.18-8.2-6.29-15.5-13.92-22.41-21.67-5.32-5.96-9.79-12.79-13.97-19.64-7.56-12.37-13.03-25.67-15.82-39.99-.72-3.71-1.72-7.37-2.58-11.06,0-11.93,0-23.85,0-35.78.47-2.71.84-5.43,1.41-8.11,2.48-11.72,5.84-23.14,10.49-34.25,6.38-15.22,14.62-29.37,23.41-43.2,5.68-8.94,12.15-17.38,18.57-25.83,5.67-7.47,11.6-14.76,17.7-21.89,6.67-7.8,13.61-15.38,20.54-22.96,8.08-8.85,16.21-17.66,24.46-26.35,7.01-7.38,14.22-14.56,21.34-21.84ZM152.53,342.46c1.04,0,1.78.12,2.47-.02,7.36-1.45,14.77-2.69,22.06-4.48,14.02-3.44,26.19-11,37.93-18.89,6.93-4.66,12.79-11.08,18.62-17.19,4.28-4.49,8.1-9.53,11.49-14.74,5.4-8.32,9.61-17.25,12.94-26.68,3.74-10.59,5.72-21.42,6.3-32.51.33-6.21.2-12.55-.66-18.7-1.18-8.45-2.58-16.97-5.09-25.09-3.4-11.05-7.9-21.76-13.96-31.73-4.62-7.59-8.82-15.42-13.49-22.97-4.07-6.57-8.19-13.17-12.92-19.26-6.68-8.6-13.87-16.8-20.97-25.07-7.37-8.59-14.84-17.09-22.36-25.55-4.77-5.37-9.63-10.67-14.61-15.85-2.27-2.36-4.93-4.35-7.44-6.53v69.97c6-5.65,11.49-10.76,16.91-15.95,3.93-3.76,9.25-3.48,12.68.3,4.28,4.72,4.12,9.91-.68,14.98-7.34,7.76-15.59,14.42-24.23,20.68-2.03,1.47-4.38,3.77-4.75,6-.74,4.43-.22,9.06-.22,13.72.71,0,1.22.16,1.53-.02,4.64-2.79,9.4-5.41,13.82-8.51,4.97-3.48,9.63-7.4,14.42-11.13,3.83-2.98,9.01-2.79,12.24.84,4.96,5.57,3.98,11.04-2.36,16.48-8.97,7.69-19.05,13.79-29.35,19.37-7.54,4.09-11.65,9.23-10.39,18.09.42,2.93.07,5.98.07,9.43,6.47-3.68,12.44-6.68,18-10.33,8.03-5.27,15.96-10.74,23.54-16.63,4.9-3.81,9.07-8.55,13.64-12.79,2.46-2.28,4.75-5.31,7.7-6.35,4.49-1.58,8.4.78,10.85,4.87,2.06,3.43,1.92,7.22-.45,10.24-3.63,4.63-7.51,9.17-11.86,13.11-5.45,4.94-11.38,9.38-17.3,13.78-5.54,4.11-11.18,8.11-17.04,11.73-6.68,4.13-13.69,7.71-20.47,11.67-2.87,1.68-5.4,4.07-5.87,7.46-.66,4.83-.7,9.75-1.03,15.05,2.38-1.07,4.14-1.72,5.75-2.61,6.89-3.82,13.85-7.53,20.57-11.62,11.19-6.8,22.42-13.58,32.22-22.42,2.42-2.19,5-4.97,8.78-4.11,4.53,1.03,7.48,3.92,8.54,8.62.81,3.63-.71,6.43-3.29,8.53-6.61,5.38-13.15,10.91-20.19,15.67-9.16,6.2-18.72,11.83-28.22,17.51-5.26,3.15-10.84,5.77-16.14,8.86-4,2.33-7.24,5.63-7.62,10.47-.39,4.91-.09,9.87-.09,15.23,3.23-1.95,6-3.63,8.78-5.3,8.41-5.06,16.7-10.35,25.28-15.12,7.75-4.31,15.77-8.16,23.79-11.95,2.75-1.3,5.95-1.82,8.71.28,7.04,5.35,6.18,13.69-1.75,17.74-8.74,4.47-17.6,8.71-26.16,13.49-9.87,5.52-19.72,11.15-29.1,17.44-6.06,4.07-10.5,9.66-9.67,18.01.51,5.06.09,10.21.09,15.32v15.18ZM132.26,277.01c0-5.31-.01-9.78,0-14.24.01-2.99-.75-5.75-3.22-7.53-4.52-3.25-9.07-6.5-13.86-9.32-8.26-4.87-16.89-9.13-25.05-14.17-10.82-6.68-21.62-13.43-30.43-22.88-4.04-4.33-3.55-9.25.11-13.9,2.72-3.46,8.75-3.1,12.8.06,6.74,5.26,13.37,10.76,20.56,15.34,12.59,8.02,25.58,15.43,39.06,23.49,0-5.51.59-10.06-.21-14.35-.52-2.76-2.53-5.89-4.81-7.56-5.76-4.2-11.82-8.12-18.18-11.32-11.57-5.84-21.53-13.94-31.56-21.87-5.82-4.6-10.79-10.28-16.04-15.58-2.76-2.78-4.43-6.08-3.9-10.22.65-5.12,7.24-10.73,13.51-6.62,2.74,1.79,4.64,4.81,7.16,7.01,5.35,4.69,10.85,9.22,16.3,13.81,8.91,7.5,18.63,13.75,29.11,18.84,2.79,1.35,5.5,2.88,8.65,4.54,0-4.66-.19-8.8.05-12.91.3-5.22-2.03-8.87-6.21-11.52-3.88-2.46-7.77-4.92-11.81-7.1-8.66-4.68-16.37-10.64-23.74-17.09-4.43-3.88-3.41-10.16-1.03-13.16,3.27-4.12,8.32-4.69,12.93-1.54,6.84,4.67,13.63,9.43,20.49,14.06,2.9,1.96,5.95,3.72,9.32,5.82,0-4.25-.2-7.96.06-11.65.23-3.2-1.1-5.49-3.32-7.42-1.57-1.37-3.4-2.45-4.97-3.82-7-6.07-14.34-11.82-20.81-18.42-5.33-5.44-4.79-10.36.47-15.39,3.12-2.99,6.64-2.73,10.26-.15,2.47,1.77,4.52,4.12,6.86,6.09,3.62,3.07,7.33,6.04,11.15,9.17V37.67c-3.05,2.76-5.95,5.1-8.51,7.76-4.53,4.72-8.86,9.64-13.26,14.49-8.56,9.42-17.44,18.59-25.6,28.35-11.92,14.26-23,29.21-33.01,44.9-9.06,14.2-17.17,28.91-22.91,44.81-4.03,11.15-6.98,22.65-7.51,34.46-.65,14.29-.12,28.49,4.1,42.54,5.4,18.01,14.22,33.81,26.62,47.77,9.4,10.58,20.72,18.66,33.06,25.38,10.97,5.98,22.45,10.66,34.88,12.66,4.06.65,8.13,1.18,12.46,1.81,0-11.51.06-22.46-.06-33.41-.02-1.92-.45-4-1.28-5.72-2.83-5.88-7.7-9.8-13.23-13.04-9.47-5.55-18.8-11.32-28.33-16.75-7.24-4.13-14.74-7.81-22.06-11.8-4.92-2.68-6.73-7.76-4.58-12.24,2.44-5.09,7.2-6.89,12.66-4.47,4.56,2.03,9.03,4.28,13.44,6.61,8.5,4.49,17.03,8.94,25.36,13.73,5.98,3.43,11.65,7.39,18.08,11.5Z"/>
  </g>
</svg>