<svg width="93" height="91" viewBox="0 0 93 91" fill="none" xmlns="http://www.w3.org/2000/svg">
<path d="M58.125 79.625H34.875V47.775C34.875 46.5184 35.9159 45.5 37.2 45.5H55.8C57.0842 45.5 58.125 46.5184 58.125 47.775V79.625Z" stroke="#E6FBF7" stroke-width="4" stroke-linecap="round" stroke-linejoin="round"/>
<path d="M79.05 79.6248H58.125V68.629C58.125 67.3724 59.1658 66.354 60.45 66.354H79.05C80.3342 66.354 81.375 67.3724 81.375 68.629V77.3498C81.375 78.6064 80.3342 79.6248 79.05 79.6248Z" stroke="#E6FBF7" stroke-width="4" stroke-linecap="round" stroke-linejoin="round"/>
<path d="M34.875 79.6252V61.046C34.875 59.7894 33.8341 58.771 32.55 58.771H13.95C12.6659 58.771 11.625 59.7894 11.625 61.046V77.3502C11.625 78.6067 12.6659 79.6252 13.95 79.6252H34.875Z" stroke="#E6FBF7" stroke-width="4" stroke-linecap="round" stroke-linejoin="round"/>
<path d="M41.8717 19.3877L45.3945 12.0787C45.8467 11.1404 47.1533 11.1404 47.6055 12.0787L51.1283 19.3877L59.0066 20.567C60.0175 20.7184 60.4202 21.9908 59.6886 22.7208L53.9888 28.406L55.3338 36.4379C55.5067 37.4693 54.4496 38.256 53.5451 37.7688L46.5 33.9745L39.4549 37.7688C38.5505 38.256 37.4933 37.4693 37.666 36.4379L39.0112 28.406L33.3115 22.7208C32.5797 21.9908 32.9826 20.7184 33.9934 20.567L41.8717 19.3877Z" stroke="#E6FBF7" stroke-width="4" stroke-linecap="round" stroke-linejoin="round"/>
</svg>
