<svg width="74" height="74" viewBox="0 0 74 74" fill="none" xmlns="http://www.w3.org/2000/svg">
<path d="M28.4642 26.5712C22.397 27.9439 19.3634 28.6303 18.6416 30.9513C17.9199 33.2721 19.988 35.6907 24.1242 40.5272L25.1943 41.7787C26.3697 43.153 26.9574 43.8402 27.2218 44.6906C27.4862 45.5407 27.3973 46.4577 27.2196 48.2913L27.0578 49.961C26.4325 56.4144 26.1198 59.6411 28.0094 61.0754C29.8989 62.5098 32.7391 61.2019 38.4199 58.5863L39.8897 57.9098C41.5038 57.1664 42.311 56.7949 43.1667 56.7949C44.0223 56.7949 44.8295 57.1664 46.4436 57.9098L47.9135 58.5863C53.5942 61.2019 56.4345 62.5098 58.324 61.0754C60.2135 59.6411 59.9008 56.4144 59.2755 49.961M62.209 40.5272C66.3453 35.6907 68.4133 33.2721 67.6918 30.9513C66.97 28.6303 63.9363 27.9439 57.8692 26.5712L56.2995 26.216C54.5753 25.8259 53.7132 25.6309 53.021 25.1054C52.3291 24.58 51.8851 23.7836 50.9971 22.1909L50.189 20.7408C47.0643 15.1359 45.5023 12.3335 43.1667 12.3335C40.831 12.3335 39.269 15.1359 36.1444 20.7408" stroke="#E6FBF7" stroke-width="4" stroke-linecap="round"/>
<path d="M3.59473 49.3334C7.03443 46.6231 11.6037 45.6244 15.9281 46.6376" stroke="#E6FBF7" stroke-width="4" stroke-linecap="round"/>
<path d="M3.59473 32.3752C6.67806 30.8335 7.57146 31.02 9.76139 30.8335" stroke="#E6FBF7" stroke-width="4" stroke-linecap="round"/>
<path d="M3.32031 17.2933L3.96214 16.9174C10.763 12.9347 17.9671 11.8611 24.7589 13.8182L25.3998 14.0029" stroke="#E6FBF7" stroke-width="4" stroke-linecap="round"/>
</svg>
