<svg width="137" height="132" viewBox="0 0 137 132" fill="none" xmlns="http://www.w3.org/2000/svg">
<path d="M25.6553 110.345C24.129 111.871 21.6443 111.879 20.2131 110.263C12.6519 101.725 7.47337 91.3145 5.23935 80.0833C2.7506 67.5716 4.02792 54.6028 8.90977 42.8169C13.7916 31.0311 22.0587 20.9576 32.6657 13.8702C43.2727 6.78286 55.7431 3 68.5 3C81.2569 3 93.7273 6.78286 104.334 13.8702C114.941 20.9576 123.208 31.0311 128.09 42.8169C132.972 54.6028 134.249 67.5716 131.761 80.0833C129.527 91.3145 124.348 101.725 116.787 110.263C115.356 111.879 112.871 111.871 111.345 110.345V110.345C109.818 108.818 109.83 106.352 111.247 104.724C117.722 97.2883 122.162 88.2728 124.094 78.5583C126.281 67.5629 125.158 56.1658 120.868 45.8084C116.578 35.4509 109.313 26.5982 99.9914 20.3698C90.6699 14.1414 79.7108 10.817 68.5 10.817C57.2892 10.817 46.3301 14.1414 37.0086 20.3698C27.6871 26.5982 20.4219 35.4509 16.1317 45.8084C11.8415 56.1658 10.719 67.5629 12.9061 78.5583C14.8385 88.2728 19.2776 97.2883 25.7526 104.724C27.1702 106.352 27.1817 108.818 25.6553 110.345V110.345Z" fill="black"/>
<path d="M43.3419 13.7671C41.4104 9.87224 42.9916 5.09903 47.0927 3.65613C53.2744 1.48114 59.7664 0.255767 66.3466 0.0359571C72.9268 -0.183853 79.486 0.605543 85.7992 2.36315C89.9874 3.52914 91.8836 8.1862 90.2164 12.2013V12.2013C88.5492 16.2163 83.9469 18.0512 79.7161 17.0511C75.5217 16.0596 71.2029 15.626 66.8722 15.7707C62.5415 15.9153 58.2613 16.6362 54.1424 17.9054C49.9878 19.1856 45.2733 17.6619 43.3419 13.7671V13.7671Z" fill="black"/>
<path d="M123.263 39.4031C127.16 37.4764 131.932 39.0634 133.37 43.1661C135.537 49.3505 136.755 55.844 136.967 62.4244C137.178 69.0049 136.381 75.5632 134.616 81.8742C133.445 86.0609 128.786 87.9515 124.772 86.2795V86.2795C120.759 84.6074 118.93 80.003 119.935 75.7733C120.932 71.5801 121.371 67.2619 121.231 62.931C121.092 58.6001 120.376 54.3191 119.112 50.1987C117.837 46.0425 119.366 41.3299 123.263 39.4031V39.4031Z" fill="black"/>
<path d="M13.7368 39.4031C9.83959 37.4764 5.06828 39.0634 3.63034 43.1661C1.46281 49.3505 0.245272 55.844 0.0334048 62.4244C-0.178463 69.0049 0.61885 75.5632 2.38407 81.8742C3.55512 86.0609 8.21446 87.9515 12.2275 86.2795V86.2795C16.2405 84.6074 18.0699 80.003 17.0647 75.7733C16.0681 71.5801 15.6293 67.2619 15.7687 62.931C15.9082 58.6001 16.6239 54.3191 17.8881 50.1987C19.1633 46.0425 17.6339 41.3299 13.7368 39.4031V39.4031Z" fill="black"/>
</svg>
